<?xml version="1.0" encoding="UTF-8"?>
<!--Generator: Apple Native CoreSVG 326-->
<!DOCTYPE svg
PUBLIC "-//W3C//DTD SVG 1.1//EN"
       "http://www.w3.org/Graphics/SVG/1.1/DTD/svg11.dtd">
<svg version="1.1" xmlns="http://www.w3.org/2000/svg" xmlns:xlink="http://www.w3.org/1999/xlink" viewBox="0 0 9.94141 23.0957">
 <g>
  <rect height="23.0957" opacity="0" width="9.94141" x="0" y="0"/>
  <path d="M0 2.25586L9.58008 2.25586L9.58008 1.92383C9.58008 0.625 8.94531 0 7.69531 0L1.875 0C0.625 0 0 0.625 0 1.92383ZM3.87695 23.0859L5.70312 23.0859C6.93359 23.0859 7.58789 22.4316 7.58789 21.1621L7.58789 9.83398C7.58789 8.75 7.83203 8.01758 8.22266 7.41211L8.7793 6.54297C9.25781 5.79102 9.58008 5.14648 9.58008 4.27734L9.58008 3.38867L0 3.38867L0 4.27734C0 5.14648 0.322266 5.79102 0.800781 6.54297L1.35742 7.41211C1.74805 8.01758 1.99219 8.75 1.99219 9.83398L1.99219 21.1621C1.99219 22.4316 2.64648 23.0859 3.87695 23.0859ZM3.06641 10.7617C3.06641 9.80469 3.81836 9.04297 4.79492 9.04297C5.76172 9.04297 6.51367 9.80469 6.51367 10.7617L6.51367 13.7109C6.51367 14.6777 5.76172 15.4297 4.79492 15.4297C3.81836 15.4297 3.06641 14.6777 3.06641 13.7109ZM4.79492 14.8242C5.43945 14.8242 5.9082 14.3555 5.9082 13.7109C5.9082 13.1055 5.41016 12.6074 4.79492 12.6074C4.16992 12.6074 3.67188 13.1055 3.67188 13.7109C3.67188 14.3555 4.15039 14.8242 4.79492 14.8242Z" fill="black" fill-opacity="0.85"/>
 </g>
</svg>
