<?xml version="1.0" encoding="UTF-8"?>
<!--Generator: Apple Native CoreSVG 326-->
<!DOCTYPE svg
PUBLIC "-//W3C//DTD SVG 1.1//EN"
       "http://www.w3.org/Graphics/SVG/1.1/DTD/svg11.dtd">
<svg version="1.1" xmlns="http://www.w3.org/2000/svg" xmlns:xlink="http://www.w3.org/1999/xlink" viewBox="0 0 24.3457 19.248">
 <g>
  <rect height="19.248" opacity="0" width="24.3457" x="0" y="0"/>
  <path d="M3.06641 18.623L20.918 18.623C22.9492 18.623 23.9844 17.6074 23.9844 15.5957L23.9844 5.37109C23.9844 3.35938 22.9492 2.35352 20.918 2.35352L18.125 2.35352C17.3535 2.35352 17.1191 2.19727 16.6797 1.70898L15.8984 0.830078C15.4102 0.292969 14.9121 0 13.9062 0L10.0098 0C9.00391 0 8.50586 0.292969 8.01758 0.830078L7.23633 1.70898C6.79688 2.1875 6.55273 2.35352 5.79102 2.35352L3.06641 2.35352C1.02539 2.35352 0 3.35938 0 5.37109L0 15.5957C0 17.6074 1.02539 18.623 3.06641 18.623ZM3.08594 17.0508C2.12891 17.0508 1.57227 16.5332 1.57227 15.5176L1.57227 5.45898C1.57227 4.44336 2.12891 3.92578 3.08594 3.92578L6.18164 3.92578C7.06055 3.92578 7.53906 3.75977 8.02734 3.21289L8.78906 2.35352C9.3457 1.72852 9.63867 1.57227 10.498 1.57227L13.418 1.57227C14.2773 1.57227 14.5703 1.72852 15.127 2.35352L15.8887 3.21289C16.377 3.75977 16.8555 3.92578 17.7344 3.92578L20.8887 3.92578C21.8555 3.92578 22.4121 4.44336 22.4121 5.45898L22.4121 15.5176C22.4121 16.5332 21.8555 17.0508 20.8887 17.0508Z" fill="black" fill-opacity="0.85"/>
  <path d="M5.41992 10.0098C5.18555 10.3516 5.27344 10.7617 5.71289 10.7617L6.70898 10.7617C7.17773 13.3887 9.30664 15.2051 12.0117 15.2051C13.1934 15.2051 14.375 14.7949 15.2051 14.1113C15.6543 13.7598 15.7715 13.2617 15.4297 12.9102C15.0977 12.5586 14.6777 12.6172 14.2969 12.8906C13.6133 13.4277 12.9297 13.7207 12.0117 13.7207C10.127 13.7207 8.55469 12.4512 8.125 10.7617L9.13086 10.7617C9.57031 10.7617 9.67773 10.3516 9.43359 10.0098L7.89062 7.88086C7.64648 7.5293 7.20703 7.5 6.93359 7.88086ZM8.57422 6.89453C8.89648 7.24609 9.32617 7.19727 9.69727 6.91406C10.3809 6.36719 11.0742 6.09375 11.9922 6.09375C13.877 6.09375 15.4395 7.36328 15.8691 9.04297L14.8047 9.04297C14.375 9.04297 14.2676 9.46289 14.5117 9.79492L16.0449 11.9336C16.2988 12.2852 16.7383 12.3145 17.0117 11.9336L18.5254 9.79492C18.7598 9.45312 18.6719 9.04297 18.2324 9.04297L17.2852 9.04297C16.8164 6.41602 14.6875 4.59961 11.9922 4.59961C10.8105 4.59961 9.61914 5.01953 8.79883 5.70312C8.34961 6.05469 8.23242 6.54297 8.57422 6.89453Z" fill="black" fill-opacity="0.85"/>
 </g>
</svg>
