<?xml version="1.0" encoding="UTF-8"?>
<!--Generator: Apple Native CoreSVG 326-->
<!DOCTYPE svg
PUBLIC "-//W3C//DTD SVG 1.1//EN"
       "http://www.w3.org/Graphics/SVG/1.1/DTD/svg11.dtd">
<svg version="1.1" xmlns="http://www.w3.org/2000/svg" xmlns:xlink="http://www.w3.org/1999/xlink" viewBox="0 0 22.2949 22.5488">
 <g>
  <rect height="22.5488" opacity="0" width="22.2949" x="0" y="0"/>
  <path d="M19.5898 7.90039L21.4453 11.0938C22.3242 12.6074 22.0312 13.8379 20.4883 14.7266L9.0332 21.3477C8.94592 21.3979 8.85973 21.4442 8.77498 21.4852C8.94306 21.2095 9.0549 20.8795 9.1095 20.4963C9.40967 20.2634 9.68076 19.9337 9.92188 19.5117L10.3392 18.7885L14.5851 16.3346L13.169 13.884L14.0744 12.3147L15.9415 15.5506L19.6484 13.4082C20.2051 13.0762 20.4102 12.4414 20.0781 11.8652L18.252 8.69141C17.9004 8.0957 17.207 7.89062 16.6504 8.21289L16.3366 8.39396L17.168 6.95312C17.2903 6.74347 17.3889 6.53992 17.4617 6.34306C18.2978 6.36415 19.0112 6.89244 19.5898 7.90039Z" fill="black" fill-opacity="0.85"/>
  <path d="M12.959 1.49414L16.1523 3.33984C17.6953 4.22852 18.0566 5.42969 17.168 6.95312L9.92188 19.5117C9.68076 19.9337 9.40967 20.2634 9.1095 20.4963C9.13693 20.3111 9.15039 20.1129 9.15039 19.9023L9.15039 17.7041L9.34762 17.3621L9.15039 17.2483L9.15039 15.4233L10.137 15.9934L12.8405 11.3056L9.15039 9.17643L9.15039 7.36381L13.6232 9.94839L15.7617 6.24023C16.0938 5.66406 15.918 5.01953 15.3613 4.6875L12.1875 2.86133C11.5918 2.51953 10.8887 2.66602 10.5664 3.23242L9.15039 5.68633L9.15039 2.62695C9.15039 2.60264 9.15021 2.57849 9.14799 2.55623L9.24805 2.38281C10.1172 0.878906 11.377 0.585938 12.959 1.49414Z" fill="black" fill-opacity="0.85"/>
  <path d="M2.77344 22.5391L6.46484 22.5391C8.23242 22.5391 9.15039 21.6406 9.15039 19.9023L9.15039 2.62695C9.15039 0.888672 8.23242 0 6.46484 0L2.77344 0C0.947266 0 0 0.888672 0 2.62695L0 19.9023C0 21.6406 0.947266 22.5391 2.77344 22.5391ZM2.79297 20.9668C2.09961 20.9668 1.57227 20.4785 1.57227 19.8242L1.57227 2.70508C1.57227 2.05078 2.09961 1.57227 2.79297 1.57227L6.44531 1.57227C7.09961 1.57227 7.57812 2.05078 7.57812 2.70508L7.57812 19.8242C7.57812 20.4785 7.09961 20.9668 6.44531 20.9668ZM0.810547 8.56445L8.33984 8.56445L8.33984 6.99219L0.810547 6.99219ZM0.810547 15.5469L8.33984 15.5469L8.33984 13.9746L0.810547 13.9746Z" fill="black" fill-opacity="0.85"/>
 </g>
</svg>
