<?xml version="1.0" encoding="UTF-8"?>
<!--Generator: Apple Native CoreSVG 326-->
<!DOCTYPE svg
PUBLIC "-//W3C//DTD SVG 1.1//EN"
       "http://www.w3.org/Graphics/SVG/1.1/DTD/svg11.dtd">
<svg version="1.1" xmlns="http://www.w3.org/2000/svg" xmlns:xlink="http://www.w3.org/1999/xlink" viewBox="0 0 16.1328 15.7715">
 <g>
  <rect height="15.7715" opacity="0" width="16.1328" x="0" y="0"/>
  <path d="M7.88086 15.7617C12.2363 15.7617 15.7715 12.2363 15.7715 7.88086C15.7715 3.52539 12.2363 0 7.88086 0C3.53516 0 0 3.52539 0 7.88086C0 12.2363 3.53516 15.7617 7.88086 15.7617ZM7.88086 14.2773C4.3457 14.2773 1.49414 11.416 1.49414 7.88086C1.49414 4.3457 4.3457 1.48438 7.88086 1.48438C11.416 1.48438 14.2773 4.3457 14.2773 7.88086C14.2773 11.416 11.416 14.2773 7.88086 14.2773Z" fill="black" fill-opacity="0.85"/>
  <path d="M4.28711 7.88086C4.28711 8.31055 4.58984 8.60352 5.03906 8.60352L7.13867 8.60352L7.13867 10.7227C7.13867 11.1621 7.43164 11.4648 7.86133 11.4648C8.31055 11.4648 8.60352 11.1621 8.60352 10.7227L8.60352 8.60352L10.7227 8.60352C11.1621 8.60352 11.4648 8.31055 11.4648 7.88086C11.4648 7.44141 11.1621 7.13867 10.7227 7.13867L8.60352 7.13867L8.60352 5.0293C8.60352 4.58008 8.31055 4.27734 7.86133 4.27734C7.43164 4.27734 7.13867 4.58008 7.13867 5.0293L7.13867 7.13867L5.03906 7.13867C4.58984 7.13867 4.28711 7.44141 4.28711 7.88086Z" fill="black" fill-opacity="0.85"/>
 </g>
</svg>
