<?xml version="1.0" encoding="UTF-8"?>
<!--Generator: Apple Native CoreSVG 326-->
<!DOCTYPE svg
PUBLIC "-//W3C//DTD SVG 1.1//EN"
       "http://www.w3.org/Graphics/SVG/1.1/DTD/svg11.dtd">
<svg version="1.1" xmlns="http://www.w3.org/2000/svg" xmlns:xlink="http://www.w3.org/1999/xlink" viewBox="0 0 18.6426 14.607">
 <g>
  <rect height="14.607" opacity="0" width="18.6426" x="0" y="0"/>
  <path d="M14.1895 14.3396L18.0371 10.3845C18.1836 10.2283 18.2812 9.99391 18.2812 9.80836C18.2812 9.33961 17.959 9.02711 17.5 9.02711C17.2754 9.02711 17.1094 9.10524 16.9629 9.25172L15.459 10.8142L14.3066 12.2009L14.3848 10.4041L14.3848 0.79469C14.3848 0.335706 14.0625 0.0134403 13.6035 0.0134403C13.1445 0.0134403 12.8125 0.335706 12.8125 0.79469L12.8125 10.4041L12.9004 12.2009L11.7383 10.8142L10.2344 9.25172C10.0977 9.10524 9.92188 9.02711 9.69727 9.02711C9.23828 9.02711 8.92578 9.33961 8.92578 9.80836C8.92578 9.99391 9.01367 10.2283 9.16992 10.3845L13.0078 14.3396C13.3398 14.6912 13.8574 14.7009 14.1895 14.3396Z" fill="black" fill-opacity="0.85"/>
  <path d="M4.0918 0.267347L0.244141 4.22242C0.0976562 4.37867 0 4.60328 0 4.7986C0 5.26735 0.322266 5.57985 0.78125 5.57985C1.00586 5.57985 1.17188 5.50172 1.31836 5.35524L2.82227 3.79274L3.97461 2.39625L3.88672 4.20289L3.88672 13.8123C3.88672 14.281 4.21875 14.6033 4.67773 14.6033C5.13672 14.6033 5.46875 14.281 5.46875 13.8123L5.46875 4.20289L5.38086 2.39625L6.5332 3.79274L8.03711 5.35524C8.18359 5.50172 8.34961 5.57985 8.57422 5.57985C9.0332 5.57985 9.35547 5.26735 9.35547 4.7986C9.35547 4.60328 9.25781 4.37867 9.11133 4.22242L5.27344 0.267347C4.94141-0.0744504 4.42383-0.084216 4.0918 0.267347Z" fill="black" fill-opacity="0.85"/>
 </g>
</svg>
