<?xml version="1.0" encoding="UTF-8"?>
<!--Generator: Apple Native CoreSVG 326-->
<!DOCTYPE svg
PUBLIC "-//W3C//DTD SVG 1.1//EN"
       "http://www.w3.org/Graphics/SVG/1.1/DTD/svg11.dtd">
<svg version="1.1" xmlns="http://www.w3.org/2000/svg" xmlns:xlink="http://www.w3.org/1999/xlink" viewBox="0 0 19.1355 15.7715">
 <g>
  <rect height="15.7715" opacity="0" width="19.1355" x="0" y="0"/>
  <path d="M9.38219 0C7.06773 0 4.97789 0.996094 3.54234 2.58789C3.17125 2.99805 3.30797 3.50586 3.63023 3.75C3.91344 3.94531 4.2943 3.97461 4.65562 3.57422C5.8275 2.29492 7.50719 1.48438 9.38219 1.48438C12.4193 1.48438 14.9486 3.58398 15.6029 6.40625L14.6068 6.40625C14.0013 6.40625 13.8548 6.82617 14.1771 7.28516L15.9154 9.76562C16.1791 10.1465 16.5892 10.1562 16.8627 9.76562L18.6009 7.29492C18.933 6.82617 18.7767 6.40625 18.1712 6.40625L17.1263 6.40625C16.4427 2.76367 13.2298 0 9.38219 0ZM9.38219 15.7617C11.7064 15.7617 13.7865 14.7656 15.2318 13.1738C15.5931 12.7637 15.4662 12.2559 15.1341 12.0117C14.8607 11.8164 14.4798 11.7871 14.1185 12.1875C12.9466 13.4668 11.2572 14.2773 9.38219 14.2773C6.35484 14.2773 3.82555 12.1777 3.17125 9.35547L4.15758 9.35547C4.76305 9.35547 4.9193 8.93555 4.59703 8.47656L2.85875 5.99609C2.59508 5.61523 2.18492 5.60547 1.91148 5.99609L0.173202 8.4668C-0.158829 8.93555-0.0123451 9.35547 0.602889 9.35547L1.63805 9.35547C2.32164 12.998 5.53453 15.7617 9.38219 15.7617Z" fill="black" fill-opacity="0.85"/>
 </g>
</svg>
